<svg width="55" height="16" fill="none" xmlns="http://www.w3.org/2000/svg"><path d="M10.447 8.242L8.937 1.39A1.709 1.709 0 008.21.414 1.883 1.883 0 006.987.127H.061L0 .44c5.395 1.236 8.963 4.22 10.447 7.802z" fill="#F68A0A"/><path d="M26.498.265h-4.475l-2.795 15.507h4.468L26.498.265zM13.175 15.758L20.214.276h-4.737L11.1 10.852l-.468-1.596C9.21 6.629 7.072 4.409 4.439 2.827L8.44 15.761l4.734-.003zm26.088-5.056c.016-1.762-1.182-3.104-3.756-4.213-1.566-.715-2.521-1.194-2.51-1.92 0-.643.81-1.333 2.563-1.333a8.655 8.655 0 013.345.594l.404.176.608-3.36A12.208 12.208 0 0035.907 0c-4.417 0-7.528 2.1-7.557 5.116-.027 2.23 2.223 3.47 3.92 4.213 1.74.757 2.323 1.243 2.312 1.921-.012 1.04-1.386 1.513-2.672 1.513a9.846 9.846 0 01-4.213-.814l-.571-.248-.629 3.476c1.594.556 3.281.834 4.98.823 4.696-.001 7.75-2.076 7.786-5.298zm5.317 2.746l5.726.006c.136.54.544 2.323.544 2.323H55L51.379.282h-3.45a2.333 2.333 0 00-1.4.266c-.424.232-.755.59-.942 1.017l-6.64 14.212h4.699s.76-1.91.934-2.329zm3.065-7.51c-.023.042.37-.897.591-1.48l.303 1.336 1.032 4.478h-3.704c.369-.89 1.774-4.333 1.774-4.333l.004-.001z" fill="#004A89"/></svg>