<svg width="15" height="15" fill="none" xmlns="http://www.w3.org/2000/svg"><path d="M13.585 1.217h-1.487V.499a.495.495 0 00-.148-.353.509.509 0 00-.714 0 .495.495 0 00-.149.353v.714H3.912V.499a.495.495 0 00-.148-.353.509.509 0 00-.714 0A.495.495 0 002.9.5v.714H1.415c-.374 0-.734.146-.999.407s-.415.615-.416.984v1.252h14.996V2.604a1.387 1.387 0 00-.416-.98 1.425 1.425 0 00-.995-.407zM0 13.609c.001.37.151.723.416.984.265.26.625.407.999.407h12.17c.374 0 .734-.146.999-.407.265-.26.415-.615.416-.984V4.93H0v8.678zm7.075-1.74c.045-.47.185-.926.412-1.341a3.53 3.53 0 01.909-1.076c.7-.724.882-.948.882-1.513 0-.429-.112-.764-.606-.764s-.645.357-.668.928H7.11a1.44 1.44 0 01.41-1.174 1.479 1.479 0 011.177-.436 1.366 1.366 0 011.129.365 1.329 1.329 0 01.398 1.105c0 .67-.202 1.024-.965 1.762A4.33 4.33 0 008.14 11.19h2.241l-.125.729H7.075v-.05zM4.677 6.966c.37-.05.72-.2 1.01-.432h.616v5.386H5.38V7.532c-.232.053-.47.082-.707.086l.003-.65z" fill="#000"/></svg>