<svg width="15" height="11" fill="none" xmlns="http://www.w3.org/2000/svg"><path d="M14.443 0H.555a.494.494 0 00-.213.048.555.555 0 00-.18.138.646.646 0 00-.12.206A.713.713 0 000 .634v9.732c0 .083.014.166.042.243a.646.646 0 00.12.206.555.555 0 00.18.137c.068.032.14.048.213.048h13.888a.496.496 0 00.213-.048.557.557 0 00.18-.137.646.646 0 00.121-.206.716.716 0 00.043-.243V.634a.716.716 0 00-.043-.243.647.647 0 00-.12-.206.556.556 0 00-.181-.137.496.496 0 00-.213-.048zm-.774 2.886l-5.83 3.853h-.46L1.552 2.887a.608.608 0 01-.169-.17.75.75 0 01-.04-.73.64.64 0 01.149-.193.55.55 0 01.202-.112.506.506 0 01.437.067L7.608 5.37l5.478-3.621a.506.506 0 01.437-.067.55.55 0 01.201.112.64.64 0 01.149.193.721.721 0 01.059.5.703.703 0 01-.099.23.609.609 0 01-.168.17l.004-.001z" fill="#000"/></svg>