<svg width="22" height="34" fill="none" xmlns="http://www.w3.org/2000/svg"><ellipse cx="11" cy="29.089" rx="8.067" ry="4.156" fill="url(#paint0_radial_11246_2)"/><path d="M22 11c0 6.6-10.267 18.089-11 18.089-.733 0-11-12.014-11-18.089C0 4.925 4.925 0 11 0s11 4.4 11 11z" fill="#171717"/><path d="M21.5 11c0 1.537-.603 3.41-1.565 5.392-.958 1.971-2.247 4.001-3.566 5.836a55.33 55.33 0 01-3.712 4.627 23.16 23.16 0 01-1.315 1.362c-.136.127-.25.225-.337.295a6.002 6.002 0 01-.34-.31 24.594 24.594 0 01-1.316-1.414 61.156 61.156 0 01-3.716-4.754c-1.32-1.868-2.61-3.916-3.569-5.865C1.1 14.206.5 12.4.5 11 .5 5.201 5.201.5 11 .5 16.815.5 21.5 4.692 21.5 11zM10.86 28.615c-.011.006-.01.004.001 0h-.001zm.286.002l.002.001-.002-.001z" stroke="#666" stroke-opacity=".8"/><path d="M16.133 10.511a5.133 5.133 0 11-10.266 0 5.133 5.133 0 0110.266 0z" fill="#fff"/><path d="M15.633 10.511a4.633 4.633 0 11-9.266 0 4.633 4.633 0 019.266 0z" stroke="#6F6D6D" stroke-opacity=".8"/><defs><radialGradient id="paint0_radial_11246_2" cx="0" cy="0" r="1" gradientUnits="userSpaceOnUse" gradientTransform="matrix(0 4.15556 -8.06667 0 11 29.089)"><stop stop-color="#7E7D7D"/><stop offset=".344" stop-color="#AAA"/><stop offset="1" stop-color="#AAA" stop-opacity="0"/></radialGradient></defs></svg>