<svg width="68" height="48" fill="none" xmlns="http://www.w3.org/2000/svg"><path d="M66.599 7.51c-.784-2.936-3.08-5.251-5.993-6.042C55.284 0 33.999 0 33.999 0S12.715 0 7.393 1.412c-2.856.79-5.209 3.162-5.993 6.099C0 12.875 0 24 0 24s0 11.18 1.4 16.49c.785 2.935 3.08 5.251 5.994 6.042C12.77 48 34 48 34 48s21.285 0 26.606-1.412c2.913-.79 5.21-3.106 5.994-6.042C68 35.18 68 24.056 68 24.056s.056-11.181-1.401-16.545z" fill="#212121" fill-opacity=".8"/><path d="M27 34.435L45 24 27 13.565v20.87z" fill="#fff"/></svg>