<svg width="53" height="32" fill="none" xmlns="http://www.w3.org/2000/svg"><path fill-rule="evenodd" clip-rule="evenodd" d="M26.61 27.852A15.57 15.57 0 0037.21 32a15.874 15.874 0 0011.173-4.73A16.04 16.04 0 0053 16.002a16.04 16.04 0 00-4.617-11.267A15.874 15.874 0 0037.21.005a15.569 15.569 0 00-10.6 4.146 16.008 16.008 0 00-3.855 5.371 16.08 16.08 0 000 12.96 16.007 16.007 0 003.855 5.37zm24.316-2.939a.493.493 0 01.49-.493.494.494 0 01.478.298c.027.062.04.128.041.195a.509.509 0 01-.317.487.503.503 0 01-.202.035.495.495 0 01-.49-.522zm.49.413a.419.419 0 00.41-.413.4.4 0 00-.41-.384.39.39 0 00-.27.664c.07.077.167.124.27.133zm-.054-.165h-.109v-.468h.19a.164.164 0 01.11.027c.054.027.054.056.054.11 0 .056-.027.112-.081.112l.11.22h-.137l-.056-.193h-.081v-.084h.107c.027 0 .027-.027.027-.054s0-.027-.027-.054h-.11l.003.384z" fill="#E99F2B"/><path fill-rule="evenodd" clip-rule="evenodd" d="M31.72 14.312c-.056-.577-.165-1.126-.275-1.703h-9.67a16.33 16.33 0 01.436-1.675h8.772a18.707 18.707 0 00-.657-1.703h-7.43c.271-.582.572-1.15.9-1.702h5.601a14.042 14.042 0 00-1.201-1.676h-3.199a15.779 15.779 0 011.612-1.705A15.882 15.882 0 0018.45.204 15.841 15.841 0 009.47 1.37a15.939 15.939 0 00-6.893 5.902A16.06 16.06 0 000 16c0 3.098.895 6.13 2.576 8.726a15.938 15.938 0 006.893 5.902 15.842 15.842 0 008.98 1.167 15.883 15.883 0 009.749-5.62h-3.2a19.185 19.185 0 01-1.202-1.702h5.6a12.73 12.73 0 00.93-1.703h-7.432a17.389 17.389 0 01-.684-1.677h8.772c.183-.56.338-1.128.463-1.703.241-1.11.36-2.242.356-3.377 0-.577-.027-1.154-.082-1.703v.003z" fill="#BF0C24"/><path fill-rule="evenodd" clip-rule="evenodd" d="M50.926 19.721a.502.502 0 01.691-.485.502.502 0 01.318.485.523.523 0 01-.519.522.511.511 0 01-.49-.522zm.49.384a.381.381 0 00.411-.384.387.387 0 00-.256-.363.381.381 0 00-.155-.021.381.381 0 00-.382.384.385.385 0 00.382.384zm-.054-.164h-.109v-.44h.298c.054.028.054.084.054.138a.152.152 0 01-.082.111l.11.193h-.136l-.056-.165h-.081v-.084h.054c.027 0 .056 0 .056-.027.027 0 .027-.027.027-.055a.027.027 0 00-.027-.027c0-.029-.029 0-.056 0h-.054l.002.356z" fill="#fff"/><path fill-rule="evenodd" clip-rule="evenodd" d="M21.227 20.625a4.993 4.993 0 01-1.284.22c-.821 0-1.312-.52-1.312-1.456.006-.2.024-.4.054-.599l.11-.63.081-.522.738-4.504h1.64l-.192.988H22.1l-.247 1.647h-1.039l-.437 2.695a1.28 1.28 0 00-.026.273c0 .358.163.5.574.5.174-.003.348-.022.519-.057l-.218 1.445zm5.3-.053a6.414 6.414 0 01-1.748.246 2.613 2.613 0 01-2.174-.753 2.64 2.64 0 01-.75-2.184c0-2.28 1.257-3.929 3.005-3.929a2.175 2.175 0 011.692.667 2.197 2.197 0 01.604 1.722 7.7 7.7 0 01-.191 1.62h-3.416a.782.782 0 00-.027.22c0 .769.519 1.153 1.502 1.153a4.082 4.082 0 001.776-.411l-.272 1.649zm-1.01-3.927v-.33a.764.764 0 00-.488-.808.753.753 0 00-.332-.045c-.546 0-.93.411-1.092 1.183h1.911zM8.113 20.709H6.418l.985-6.235-2.213 6.235H4.015l-.137-6.207-1.038 6.207H1.173l1.338-8.102h2.487l.054 4.999 1.667-5H9.45L8.114 20.71zm4.125-2.939a1.581 1.581 0 00-.329-.027c-.983 0-1.475.385-1.475.988a.626.626 0 00.373.637.61.61 0 00.256.05c.82.003 1.147-.689 1.175-1.646v-.002zm1.367 2.94H12.13l.027-.688a2.004 2.004 0 01-1.804.798 1.65 1.65 0 01-1.46-1.16 1.673 1.673 0 01-.07-.653c.004-.289.05-.575.136-.85.274-1.017 1.283-1.648 2.842-1.676.191 0 .49 0 .764.027.04-.143.059-.29.055-.44 0-.44-.355-.578-1.147-.578a4.528 4.528 0 00-1.421.221l-.246.055-.11.027.247-1.483a6.397 6.397 0 011.995-.357c1.473 0 2.267.688 2.267 1.951a6.23 6.23 0 01-.083 1.29l-.382 2.36-.054.414-.027.33-.026.22-.027.191zm21.172-6.538c.538.018 1.064.17 1.53.44l.299-1.758a4.169 4.169 0 00-.437-.164l-.684-.193a4.842 4.842 0 00-2.65.249 5.108 5.108 0 00-1.012.877l-.218-.055-1.747 1.236.081-.687h-1.804l-1.064 6.586h1.72l.628-3.54s.247-.5.355-.66a.993.993 0 01.956-.411h.137c-.057.418-.084.84-.081 1.261 0 2.143 1.201 3.493 3.059 3.493a5.499 5.499 0 001.504-.22l.298-1.867a3.051 3.051 0 01-1.449.44c-1.01 0-1.61-.77-1.61-1.977.003-1.786.904-3.048 2.189-3.048v-.002zm14.508-1.565l-.382 2.306a1.778 1.778 0 00-1.558-.933 2.573 2.573 0 00-2.268 1.51v-.027l-1.092-.658.11-.687h-1.83l-1.039 6.592h1.694l.574-3.543s.438-.498.546-.66a1.07 1.07 0 01.764-.41 6.017 6.017 0 00-.298 1.949c0 1.647.846 2.746 2.103 2.746a1.976 1.976 0 001.588-.741l-.083.66h1.612l1.312-8.103-1.753-.001zm-2.104 6.535c-.574 0-.873-.439-.873-1.29 0-1.291.546-2.224 1.338-2.224.596 0 .902.468.902 1.29-.001 1.32-.547 2.227-1.368 2.227v-.003zm-7.895-1.372a1.583 1.583 0 00-.328-.027c-.985 0-1.476.385-1.476.988a.624.624 0 00.372.637.61.61 0 00.256.05c.82.003 1.148-.689 1.176-1.646v-.002zm1.365 2.94H39.15l.058-.683a2 2 0 01-1.802.798 1.656 1.656 0 01-1.18-.566 1.674 1.674 0 01-.409-1.247c0-1.565 1.175-2.526 3.032-2.526.247-.004.493.005.738.027.048-.142.076-.29.083-.44 0-.44-.355-.576-1.174-.576a4.64 4.64 0 00-1.422.22l-.218.054-.11.027.245-1.483a6.418 6.418 0 011.994-.357c1.476 0 2.24.688 2.24 1.951a4.73 4.73 0 01-.081 1.29l-.356 2.363-.053.41-.056.331-.027.22v.192-.006zm-23.468-5.19c.43.002.86.039 1.283.109l.246-1.538c-.49-.054-1.147-.138-1.53-.138-1.912 0-2.542 1.045-2.542 2.252-.006.4.115.792.346 1.118.231.327.56.57.939.695.684.33.794.384.794.687 0 .412-.353.658-1.01.658a4.551 4.551 0 01-1.558-.273l-.192 1.51.027.026.329.055c.144.036.29.064.438.084.41.027.765.054.983.054 1.912 0 2.706-.741 2.706-2.195a1.882 1.882 0 00-.338-1.134 1.867 1.867 0 00-.947-.705c-.738-.33-.821-.384-.821-.687 0-.304.328-.577.847-.577v-.001z" fill="#082C5C"/><path fill-rule="evenodd" clip-rule="evenodd" d="M37.078 12.334l-.298 1.758a3.263 3.263 0 00-1.53-.44c-1.284 0-2.184 1.262-2.184 3.049 0 1.236.596 1.977 1.613 1.977a3.346 3.346 0 001.446-.41l-.298 1.837a5.67 5.67 0 01-1.502.249c-1.857 0-3.007-1.347-3.007-3.516 0-2.885 1.589-4.917 3.852-4.917a3.26 3.26 0 01.794.084l.684.165c.22.082.274.109.44.162l-.01.002zm-5.519 1.21h-.163c-.574 0-.902.274-1.422 1.07l.164-1.016h-1.559l-1.064 6.592h1.72c.63-4.037.794-4.724 1.613-4.724h.11c.126-.66.346-1.3.654-1.896l-.053-.027zm-9.89 6.561a3.52 3.52 0 01-1.229.222 1.258 1.258 0 01-1.036-.393 1.273 1.273 0 01-.33-1.063c.005-.193.023-.386.054-.577l.11-.66.083-.52.736-4.505h1.696l-.192.988h.873l-.219 1.62h-.874l-.464 2.747c-.021.09-.03.183-.027.275 0 .329.164.466.574.466a1.14 1.14 0 00.464-.054l-.219 1.453v.002zm-6.584-4.42a1.93 1.93 0 00.346 1.129c.23.33.558.579.937.712.71.328.82.439.82.712 0 .413-.297.606-.984.606a5.081 5.081 0 01-1.53-.248l-.245 1.51.081.028.298.055c.152.039.308.057.464.054.308.042.618.061.929.056 1.804 0 2.652-.688 2.652-2.195a1.833 1.833 0 00-.295-1.123 1.818 1.818 0 00-.909-.718c-.737-.33-.819-.41-.819-.714 0-.357.298-.522.848-.522.41.003.821.031 1.228.084l.248-1.51c-.497-.085-1-.131-1.505-.138-1.916 0-2.597 1.014-2.568 2.224l.004-.001zm35.08 4.504h-1.612l.081-.632a2.04 2.04 0 01-1.583.714c-1.257 0-2.078-1.07-2.078-2.717 0-2.196 1.284-4.065 2.787-4.065a1.954 1.954 0 011.64.906l.383-2.308h1.69l-1.31 8.102h.002zm-2.514-1.538c.794 0 1.338-.934 1.338-2.224 0-.852-.298-1.297-.902-1.297-.764 0-1.338.906-1.338 2.195-.003.884.297 1.327.898 1.328l.004-.002zM26.914 20.05a5.597 5.597 0 01-1.776.275c-1.914 0-2.897-1.017-2.897-2.966 0-2.253 1.257-3.929 2.979-3.929a2.184 2.184 0 011.705.66 2.21 2.21 0 01.618 1.73 6.756 6.756 0 01-.219 1.647h-3.39a.55.55 0 00-.026.192c0 .77.52 1.155 1.502 1.155a3.735 3.735 0 001.776-.413l-.272 1.649zm-.958-3.927v-.328a.761.761 0 00-.487-.806.75.75 0 00-.332-.044c-.546 0-.93.411-1.092 1.18l1.911-.002zM8.551 20.185H6.857l.983-6.235-2.213 6.235H4.452l-.137-6.178-1.037 6.178H1.689l1.339-8.102h2.46l.081 5.026 1.64-5.026h2.68L8.55 20.185zm4.235-2.939c-.164 0-.245-.027-.382-.027-.957 0-1.449.358-1.449 1.015a.58.58 0 00.596.66c.716.005 1.204-.656 1.235-1.644v-.004zm1.26 2.94h-1.422l.027-.688a2.13 2.13 0 01-1.804.798 1.582 1.582 0 01-1.174-.544 1.6 1.6 0 01-.383-1.241c0-1.62 1.092-2.555 3.005-2.555.192 0 .44.027.711.055.038-.134.056-.272.054-.411 0-.44-.298-.599-1.092-.599a5.568 5.568 0 00-1.42.165l-.247.082-.164.029.247-1.483a6.789 6.789 0 012.05-.33c1.475 0 2.267.657 2.267 1.921-.01.443-.056.883-.137 1.318l-.382 2.336-.055.41-.027.331-.027.247-.026.164-.001-.006zm25.791-2.94c-.191 0-.274-.027-.382-.027-.985 0-1.477.358-1.477 1.015a.6.6 0 00.63.66c.683 0 1.2-.66 1.23-1.648zm1.257 2.94h-1.422l.027-.688a2.13 2.13 0 01-1.804.798 1.583 1.583 0 01-1.174-.544 1.599 1.599 0 01-.382-1.241c0-1.62 1.092-2.555 3.005-2.555.191 0 .437.027.684.055.043-.133.07-.271.081-.411 0-.44-.298-.599-1.092-.599a5.787 5.787 0 00-1.446.165l-.22.082-.164.029.247-1.483a6.79 6.79 0 012.049-.33c1.475 0 2.24.657 2.24 1.921.004.444-.042.886-.137 1.318l-.356 2.336-.053.41-.055.331-.027.247v.164-.006zm4.589-6.647h-.166c-.572 0-.9.276-1.42 1.072l.164-1.017h-1.559l-1.038 6.592h1.696c.627-4.037.794-4.724 1.612-4.724h.108c.126-.66.347-1.3.656-1.896l-.053-.027z" fill="#fff"/></svg>