<svg width="14" height="23" fill="none" xmlns="http://www.w3.org/2000/svg"><path d="M12.374 0H1.628a1.66 1.66 0 00-1.15.463A1.556 1.556 0 000 1.577v19.846c.001.418.173.818.478 1.114a1.66 1.66 0 001.15.463h10.746a1.658 1.658 0 001.15-.463c.304-.296.476-.696.476-1.114V1.577c0-.418-.172-.818-.477-1.114A1.657 1.657 0 0012.373 0zM3.945 21.184H2.19a.595.595 0 01-.414-.166.558.558 0 010-.802.595.595 0 01.414-.166h1.755c.155 0 .304.06.414.166a.558.558 0 010 .802.595.595 0 01-.414.166zm0-2.161H2.19a.594.594 0 01-.413-.166.558.558 0 010-.8.594.594 0 01.413-.167h1.755c.155 0 .304.06.413.166a.558.558 0 010 .801.594.594 0 01-.413.166zm0-2.16H2.19a.596.596 0 01-.414-.166.558.558 0 010-.802.595.595 0 01.414-.166h1.755c.155 0 .304.06.414.166a.558.558 0 010 .802.596.596 0 01-.414.166zm0-2.161H2.19a.595.595 0 01-.414-.166.558.558 0 010-.802.595.595 0 01.414-.167h1.755c.155 0 .304.06.414.167a.558.558 0 010 .802.595.595 0 01-.414.166zm3.932 6.484H6.125a.595.595 0 01-.415-.167.558.558 0 010-.802.595.595 0 01.415-.166h1.752c.156 0 .305.06.415.166a.558.558 0 010 .802.595.595 0 01-.415.167zm0-2.162H6.125a.602.602 0 01-.414-.166.564.564 0 01-.171-.4.551.551 0 01.171-.4.585.585 0 01.414-.166h1.752a.6.6 0 01.414.165.566.566 0 01.171.4.55.55 0 01-.171.401.587.587 0 01-.414.166zm0-2.16H6.125a.595.595 0 01-.415-.166.559.559 0 010-.802.595.595 0 01.415-.166h1.752c.156 0 .305.06.415.166a.558.558 0 010 .802.595.595 0 01-.415.166zm0-2.161H6.125a.6.6 0 01-.415-.166.566.566 0 01-.171-.401.551.551 0 01.171-.401.587.587 0 01.415-.166h1.752a.602.602 0 01.415.166.566.566 0 01.171.4.552.552 0 01-.171.402.588.588 0 01-.415.166zm3.933 6.483h-1.755a.596.596 0 01-.414-.166.558.558 0 010-.802.595.595 0 01.414-.166h1.755c.155 0 .304.06.414.166a.559.559 0 010 .802.596.596 0 01-.414.166zm0-2.161h-1.755a.594.594 0 01-.413-.166.557.557 0 010-.8.594.594 0 01.413-.167h1.755c.155 0 .304.06.413.166a.557.557 0 010 .801.595.595 0 01-.413.166zm0-2.16h-1.755a.6.6 0 01-.414-.166.566.566 0 01-.172-.4.551.551 0 01.172-.402.587.587 0 01.414-.166h1.755a.602.602 0 01.414.166.567.567 0 01.172.401.552.552 0 01-.172.401.586.586 0 01-.414.166zm0-2.161h-1.755a.596.596 0 01-.414-.166.558.558 0 010-.802.595.595 0 01.414-.167h1.755c.155 0 .304.06.414.167a.559.559 0 010 .802.596.596 0 01-.414.166zm.623-2.442H1.569V1.852h10.86l.004 10.41z" fill="#030303"/></svg>