<svg width="21" height="20" fill="none" xmlns="http://www.w3.org/2000/svg"><path d="M12.02 0c1.8 0 2.18.02 3.1.06 1.06.05 1.79.22 2.42.47.66.25 1.22.6 1.77 1.15.56.55.9 1.11 1.16 1.77.25.63.41 1.36.46 2.43.05.95.06 1.32.06 3.32v1.6c0 2-.01 2.37-.06 3.32a7.333 7.333 0 01-.46 2.42c-.26.66-.6 1.22-1.15 1.77-.56.56-1.12.9-1.78 1.16-.63.25-1.36.41-2.42.46-.95.05-1.33.06-3.33.06H10.2c-2 0-2.37-.01-3.33-.06a7.339 7.339 0 01-2.42-.46 4.91 4.91 0 01-1.77-1.15 4.9 4.9 0 01-1.16-1.78 7.35 7.35 0 01-.46-2.42 55.207 55.207 0 01-.06-3.1V8.97c0-1.8.02-2.18.06-3.1.05-1.06.22-1.79.46-2.42.26-.66.6-1.22 1.16-1.77A4.7 4.7 0 014.45.53 7.35 7.35 0 016.87.06C7.79.02 8.17 0 9.97 0h2.05zm.02 1.8H9.95c-1.73 0-2.1.02-3 .06-.97.04-1.5.2-1.85.34-.47.18-.8.4-1.15.75-.35.35-.57.68-.75 1.15-.13.35-.3.88-.34 1.86-.04.9-.06 1.26-.06 3v2.08c0 1.74.02 2.1.06 3 .04.97.2 1.5.34 1.85.18.47.4.8.75 1.15.35.35.68.57 1.15.75.35.14.88.3 1.86.34.97.05 1.32.06 3.48.06h1.11c2.17 0 2.51-.01 3.49-.06.97-.04 1.5-.2 1.85-.34.47-.18.8-.4 1.15-.75.35-.35.57-.68.75-1.15.14-.35.3-.88.34-1.85.05-.98.06-1.32.06-3.49v-1.1c0-2.17-.01-2.52-.06-3.5-.04-.97-.2-1.5-.34-1.85a3.101 3.101 0 00-.75-1.15 3.09 3.09 0 00-1.15-.75 5.6 5.6 0 00-1.85-.34c-1-.048-2-.068-3-.06zM11 4.86a5.135 5.135 0 110 10.27 5.135 5.135 0 010-10.27zm0 1.8a3.335 3.335 0 100 6.67 3.335 3.335 0 000-6.67zm5.33-3.2a1.2 1.2 0 110 2.4 1.2 1.2 0 010-2.4z" fill="#fff"/></svg>