<svg width="22" height="34" viewBox="0 0 22 34" fill="none" xmlns="http://www.w3.org/2000/svg">
<ellipse cx="10.9998" cy="29.0889" rx="8.06667" ry="4.15556" fill="url(#paint0_radial_11246_2)"/>
<path d="M22 11C22 17.6 11.7333 29.0889 11 29.0889C10.2667 29.0889 0 17.0751 0 11C0 4.92487 4.92487 0 11 0C17.0751 0 22 4.4 22 11Z" fill="#171717"/>
<path d="M21.5 11C21.5 12.5367 20.8972 14.4105 19.9346 16.3923C18.9772 18.3635 17.688 20.3931 16.369 22.2276C15.0509 24.0609 13.7104 25.6888 12.657 26.8555C12.1297 27.4396 11.679 27.9028 11.3423 28.2166C11.2055 28.344 11.0928 28.4419 11.005 28.5116C10.9166 28.4386 10.803 28.3358 10.6649 28.2019C10.3277 27.8748 9.87648 27.393 9.34861 26.7881C8.29421 25.5797 6.95269 23.9016 5.63337 22.0341C4.31322 20.1655 3.02271 18.1177 2.06431 16.1687C1.09895 14.2056 0.5 12.4006 0.5 11C0.5 5.20101 5.20101 0.5 11 0.5C16.8149 0.5 21.5 4.6918 21.5 11ZM10.8599 28.615C10.8489 28.6209 10.8501 28.619 10.8613 28.6143C10.8608 28.6145 10.8603 28.6148 10.8599 28.615ZM11.1464 28.617C11.1581 28.6222 11.1594 28.6243 11.1482 28.618C11.1476 28.6177 11.147 28.6173 11.1464 28.617Z" stroke="#666666" stroke-opacity="0.8"/>
<path d="M16.1334 10.511C16.1334 13.3461 13.8351 15.6444 11 15.6444C8.16497 15.6444 5.8667 13.3461 5.8667 10.511C5.8667 7.67596 8.16497 5.37769 11 5.37769C13.8351 5.37769 16.1334 7.67596 16.1334 10.511Z" fill="white"/>
<path d="M15.6334 10.511C15.6334 13.0699 13.559 15.1444 11 15.1444C8.44111 15.1444 6.3667 13.0699 6.3667 10.511C6.3667 7.9521 8.44111 5.87769 11 5.87769C13.559 5.87769 15.6334 7.9521 15.6334 10.511Z" stroke="#6F6D6D" stroke-opacity="0.8"/>
<defs>
<radialGradient id="paint0_radial_11246_2" cx="0" cy="0" r="1" gradientUnits="userSpaceOnUse" gradientTransform="translate(10.9998 29.0889) rotate(90) scale(4.15556 8.06667)">
<stop stop-color="#7E7D7D"/>
<stop offset="0.34375" stop-color="#AAAAAA"/>
<stop offset="1" stop-color="#AAAAAA" stop-opacity="0"/>
</radialGradient>
</defs>
</svg>
